<svg width="252" height="196" viewBox="0 0 252 196" fill="none" xmlns="http://www.w3.org/2000/svg">
<rect x="28" width="48" height="24" rx="10" fill="#8E6CEB"/>
<path d="M0 48C0 46.142 0 45.213 0.123117 44.4357C0.800832 40.1567 4.15673 36.8008 8.43566 36.1231C9.21298 36 10.142 36 12 36H104V60H12C10.142 60 9.21298 60 8.43566 59.8769C4.15673 59.1992 0.800832 55.8433 0.123117 51.5643C0 50.787 0 49.858 0 48Z" fill="#28C777"/>
<path fill-rule="evenodd" clip-rule="evenodd" d="M172 36H104V60H160V76H188V60V52C188 46.3995 188 43.5992 186.91 41.4601C185.951 39.5785 184.422 38.0487 182.54 37.0899C180.401 36 177.601 36 172 36Z" fill="#8E6CEB"/>
<path fill-rule="evenodd" clip-rule="evenodd" d="M201.09 41.4601C200 43.5992 200 46.3995 200 52V60V88C200 89.858 200 90.787 200.123 91.5643C200.801 95.8433 204.157 99.1992 208.436 99.8769C209.213 100 210.142 100 212 100C213.858 100 214.787 100 215.564 99.8769C219.843 99.1992 223.199 95.8433 223.877 91.5643C224 90.787 224 89.858 224 88V60H236C237.858 60 238.787 60 239.564 59.8769C243.843 59.1992 247.199 55.8433 247.877 51.5643C248 50.787 248 49.858 248 48C248 46.142 248 45.213 247.877 44.4357C247.199 40.1567 243.843 36.8008 239.564 36.1231C238.787 36 237.858 36 236 36H216C210.399 36 207.599 36 205.46 37.0899C203.578 38.0487 202.049 39.5785 201.09 41.4601Z" fill="#EB54B9"/>
<path fill-rule="evenodd" clip-rule="evenodd" d="M132 100H104V116V124C104 129.601 104 132.401 105.09 134.54C106.049 136.422 107.578 137.951 109.46 138.91C111.599 140 114.399 140 120 140H148C149.858 140 150.787 140 151.564 139.877C155.843 139.199 159.199 135.843 159.877 131.564C160 130.787 160 129.858 160 128C160 126.142 160 125.213 159.877 124.436C159.199 120.157 155.843 116.801 151.564 116.123C150.787 116 149.858 116 148 116H132V100Z" fill="#28C777"/>
<path d="M104 92C104 86.3995 104 83.5992 105.09 81.4601C106.049 79.5785 107.578 78.0487 109.46 77.0899C111.599 76 114.399 76 120 76H188V84C188 89.6005 188 92.4008 186.91 94.5399C185.951 96.4215 184.422 97.9513 182.54 98.9101C180.401 100 177.601 100 172 100H104V92Z" fill="#54A0EB"/>
<circle cx="52" cy="112" r="28" stroke="#EB54B9" stroke-width="24"/>
<circle cx="212" cy="152" r="28" stroke="#54A0EB" stroke-width="24"/>
<circle cx="52" cy="180" r="16" fill="#EB54B9"/>
</svg>
